<svg xmlns="http://www.w3.org/2000/svg" xmlns:xlink="http://www.w3.org/1999/xlink" version="1.1" x="0px" y="0px" viewBox="0 0 90 90" enable-background="new 0 0 90 90" xml:space="preserve"><g><circle cx="83.816" cy="60.574" r="3.664"/><circle cx="71.844" cy="29.4" r="2.959"/><circle cx="69.791" cy="75.519" r="3.241"/><path d="M86.336,36.021c-2.021,0-3.662,1.64-3.662,3.664s1.641,3.664,3.662,3.664c2.025,0,3.664-1.64,3.664-3.664   S88.361,36.021,86.336,36.021z"/><circle cx="56.426" cy="63.679" r="2.818"/><circle cx="77.373" cy="15.475" r="2.818"/><circle cx="16.857" cy="61.265" r="2.816"/><circle cx="35.407" cy="70.002" r="5.177"/><circle cx="67.939" cy="60.458" r="5.178"/><circle cx="30.702" cy="48.847" r="3.24"/><circle cx="19.366" cy="76.363" r="3.101"/><circle cx="66.324" cy="40.393" r="2.959"/><circle cx="18.007" cy="34.112" r="3.241"/><circle cx="51.831" cy="50.678" r="3.663"/><path d="M54.57,71.854c-1.557,0-2.82,1.263-2.82,2.817c0,1.559,1.264,2.82,2.82,2.82c1.555,0,2.816-1.263,2.816-2.82   C57.387,73.117,56.125,71.854,54.57,71.854z"/><circle cx="47.23" cy="40.094" r="2.819"/><circle cx="45.158" cy="2.819" r="2.819"/><circle cx="38.601" cy="58.388" r="2.818"/><circle cx="61.025" cy="4.882" r="2.959"/><circle cx="59.053" cy="28.941" r="2.818"/><circle cx="22.378" cy="6.731" r="2.818"/><circle cx="38.033" cy="30.318" r="5.177"/><circle cx="20.999" cy="19.156" r="3.664"/><circle cx="7.186" cy="43.027" r="3.241"/><circle cx="55.506" cy="15.875" r="2.959"/><circle cx="40.872" cy="10.909" r="3.664"/><circle cx="2.536" cy="57.667" r="2.536"/><circle cx="5.842" cy="24.363" r="2.536"/><circle cx="45.414" cy="85.59" r="3.241"/></g></svg>