<svg xmlns:svg="http://www.w3.org/2000/svg" xmlns:sodipodi="http://sodipodi.sourceforge.net/DTD/sodipodi-0.dtd" xmlns:dc="http://purl.org/dc/elements/1.1/" xmlns:rdf="http://www.w3.org/1999/02/22-rdf-syntax-ns#" xmlns:cc="http://creativecommons.org/ns#" xmlns:inkscape="http://www.inkscape.org/namespaces/inkscape" xmlns="http://www.w3.org/2000/svg" xmlns:xlink="http://www.w3.org/1999/xlink" version="1.1" x="0px" y="0px" viewBox="0 0 800 800" enable-background="new 0 0 800 800" xml:space="preserve"><g><path d="M492.001,233.896c-6.436-4.314-15.143-2.602-19.456,3.832c-4.316,6.431-2.603,15.143,3.828,19.459   c26.853,18.017,46.591,44.929,55.588,75.768c1.786,6.124,7.382,10.101,13.457,10.101c1.298,0,2.621-0.181,3.933-0.564   c7.434-2.169,11.703-9.953,9.534-17.386C548.053,287.964,524.301,255.574,492.001,233.896z"/><path d="M443.466,211.7c-14.103-3.846-28.728-5.793-43.469-5.793c-7.745,0-14.022,6.28-14.022,14.023   c0,7.743,6.277,14.023,14.022,14.023c12.251,0,24.396,1.619,36.096,4.807c1.232,0.334,2.474,0.499,3.694,0.499   c6.168,0,11.821-4.103,13.522-10.342C455.345,221.445,450.94,213.738,443.466,211.7z"/><path d="M41.011,355.954c-7.746,0-14.023,6.28-14.023,14.023c0,7.745,6.277,14.023,14.023,14.023l88.345-0.003   c7.745,0,14.023-6.277,14.023-14.023s-6.278-14.023-14.023-14.023L41.011,355.954z"/><path d="M656.621,372.778c0,7.746,6.277,14.023,14.022,14.023h88.345c7.746,0,14.023-6.277,14.023-14.023   s-6.277-14.023-14.023-14.023h-88.345C662.898,358.755,656.621,365.033,656.621,372.778z"/><path d="M568.563,54.171l-44.172,76.513c-3.873,6.707-1.575,15.283,5.132,19.155   c2.208,1.276,4.621,1.882,6.998,1.882c4.848,0,9.562-2.517,12.158-7.014l44.172-76.513c3.873-6.708,1.575-15.286-5.133-19.155   C581.006,45.163,572.434,47.464,568.563,54.171z"/><path d="M214.708,47.642c-6.708,3.873-9.005,12.448-5.132,19.156l44.175,76.507c2.597,4.5,7.31,7.014,12.158,7.014   c2.377,0,4.79-0.605,6.998-1.882c6.708-3.873,9.005-12.451,5.132-19.155l-44.175-76.508   C229.993,46.067,221.415,43.764,214.708,47.642z"/><path d="M672.029,214.318c-3.869-6.705-12.447-9.008-19.155-5.133l-34.003,19.632   c-6.707,3.873-9.006,12.448-5.133,19.156c2.597,4.497,7.311,7.014,12.158,7.014c2.377,0,4.79-0.605,6.998-1.881l34.003-19.632   C673.604,229.602,675.902,221.026,672.029,214.318z"/><path d="M385.975,71.284l-0.003,39.259c0,7.745,6.277,14.025,14.023,14.025c7.743,0,14.023-6.277,14.023-14.02   l0.003-39.259c0-7.745-6.277-14.025-14.023-14.025C392.255,57.264,385.975,63.541,385.975,71.284z"/><path d="M174.099,254.991c4.845,0,9.559-2.514,12.158-7.012c3.873-6.708,1.575-15.283-5.133-19.158l-34-19.635   c-6.702-3.87-15.28-1.575-19.155,5.133c-3.873,6.705-1.575,15.283,5.132,19.156l34,19.635   C169.308,254.383,171.718,254.991,174.099,254.991z"/><path d="M758.988,453.964c-7.745,0-14.022,6.277-14.022,14.022c0,9.214-15.935,19.518-37.26,19.518   c-20.284,0-32.104-16.346-32.535-16.953l-14.356-20.972c-0.657-0.956-13.426-19.2-36.742-26.326   c3.905-16.942,5.905-34.326,5.905-51.874c0-126.81-103.168-229.978-229.98-229.978c-126.809,0-229.974,103.168-229.974,229.978   c0,17.534,2.008,34.926,5.913,51.871c-23.321,7.127-36.093,25.373-36.75,26.332l-14.357,20.971   c-0.115,0.167-12.174,16.951-32.532,16.951c-21.328,0-37.263-10.304-37.263-19.518c0-7.745-6.277-14.022-14.023-14.022   s-14.023,6.277-14.023,14.022c0,26.672,28.687,47.563,65.309,47.563c35.312,0,54.859-27.964,55.678-29.158l14.354-20.969   c0.115-0.17,12.174-16.95,32.535-16.95c20.282,0,32.103,16.346,32.535,16.953l14.354,20.969   c0.816,1.191,20.363,29.155,55.678,29.155c35.31,0,54.862-27.964,55.681-29.158l14.354-20.969   c0.115-0.17,12.174-16.95,32.532-16.95c20.281,0,32.103,16.346,32.535,16.953l14.357,20.969   c0.815,1.191,20.363,29.155,55.676,29.155c35.309,0,54.861-27.964,55.681-29.158l14.354-20.969   c0.115-0.17,12.174-16.95,32.532-16.95c20.284,0,32.104,16.346,32.538,16.953l14.354,20.969   c0.816,1.191,20.364,29.155,55.679,29.155c36.619,0,65.306-20.892,65.306-47.563C773.012,460.241,766.734,453.964,758.988,453.964z    M595.747,421.103c-29.377,4.271-45.545,27.397-46.287,28.479l-14.357,20.969c-0.114,0.169-12.174,16.953-32.534,16.953   c-20.281,0-32.103-16.346-32.53-16.951l-14.362-20.971c-0.816-1.191-20.363-29.155-55.676-29.155   c-35.312,0-54.859,27.964-55.673,29.149l-14.36,20.975c-0.115,0.169-12.174,16.953-32.535,16.953   c-20.284,0-32.105-16.346-32.532-16.951l-14.36-20.971c-0.742-1.082-16.912-24.215-46.298-28.482   c-4.092-16.181-6.173-32.874-6.173-49.721c0-111.346,90.585-201.931,201.928-201.931c111.347,0,201.935,90.585,201.935,201.931   C601.932,388.239,599.839,404.922,595.747,421.103z"/><path d="M758.988,573.31c-7.745,0-14.022,6.277-14.022,14.023c0,9.214-15.935,19.517-37.26,19.517   c-20.284,0-32.104-16.345-32.535-16.953l-14.356-20.972c-0.816-1.188-20.369-29.152-55.679-29.152   c-35.313,0-54.859,27.964-55.676,29.155l-14.357,20.969c-0.114,0.17-12.174,16.953-32.534,16.953   c-20.281,0-32.103-16.345-32.53-16.95l-14.362-20.972c-0.816-1.191-20.363-29.155-55.676-29.155   c-35.312,0-54.859,27.964-55.673,29.149l-14.36,20.975c-0.115,0.17-12.174,16.953-32.535,16.953   c-20.284,0-32.105-16.345-32.532-16.95l-14.36-20.972c-0.816-1.191-20.363-29.155-55.676-29.155   c-35.309,0-54.862,27.964-55.678,29.155l-14.357,20.972c-0.115,0.167-12.174,16.95-32.532,16.95   c-21.328,0-37.263-10.303-37.263-19.517c0-7.746-6.277-14.023-14.023-14.023s-14.023,6.277-14.023,14.023   c0,26.671,28.687,47.563,65.309,47.563c35.312,0,54.859-27.964,55.678-29.158l14.354-20.969   c0.115-0.17,12.174-16.951,32.535-16.951c20.282,0,32.103,16.346,32.535,16.954l14.354,20.969   c0.816,1.191,20.363,29.155,55.678,29.155c35.31,0,54.862-27.964,55.681-29.158l14.354-20.969   c0.115-0.17,12.174-16.951,32.532-16.951c20.281,0,32.103,16.346,32.535,16.954l14.357,20.969   c0.815,1.191,20.363,29.155,55.676,29.155c35.309,0,54.861-27.964,55.681-29.158l14.354-20.969   c0.115-0.17,12.174-16.951,32.532-16.951c20.284,0,32.104,16.346,32.538,16.954l14.354,20.969   c0.816,1.191,20.364,29.155,55.679,29.155c36.619,0,65.306-20.893,65.306-47.563C773.012,579.587,766.734,573.31,758.988,573.31z"/><path d="M758.988,692.656c-7.745,0-14.022,6.277-14.022,14.022c0,9.214-15.935,19.518-37.26,19.518   c-20.284,0-32.104-16.346-32.535-16.954l-14.356-20.971c-0.816-1.189-20.369-29.153-55.679-29.153   c-35.313,0-54.859,27.964-55.676,29.155l-14.357,20.969c-0.114,0.17-12.174,16.954-32.534,16.954   c-20.281,0-32.103-16.346-32.53-16.948l-14.362-20.975c-0.816-1.191-20.363-29.155-55.676-29.155   c-35.312,0-54.859,27.964-55.673,29.15l-14.36,20.974c-0.115,0.17-12.174,16.954-32.535,16.954   c-20.284,0-32.105-16.346-32.532-16.948l-14.36-20.975c-0.816-1.191-20.363-29.155-55.676-29.155   c-35.309,0-54.862,27.964-55.678,29.155l-14.357,20.972c-0.115,0.17-12.174,16.951-32.532,16.951   c-21.328,0-37.263-10.304-37.263-19.518c0-7.745-6.277-14.022-14.023-14.022s-14.023,6.277-14.023,14.022   c0,26.671,28.687,47.563,65.309,47.563c35.312,0,54.859-27.964,55.678-29.158l14.354-20.966   c0.115-0.17,12.174-16.954,32.535-16.954c20.282,0,32.103,16.346,32.535,16.957l14.354,20.966   c0.816,1.191,20.363,29.155,55.678,29.155c35.31,0,54.862-27.964,55.681-29.158l14.354-20.969   c0.115-0.17,12.174-16.951,32.532-16.951c20.281,0,32.103,16.346,32.535,16.957l14.357,20.966   c0.815,1.191,20.363,29.155,55.676,29.155c35.309,0,54.861-27.964,55.681-29.158l14.354-20.969   c0.115-0.17,12.174-16.951,32.532-16.951c20.284,0,32.104,16.349,32.538,16.957l14.354,20.966   c0.816,1.191,20.364,29.155,55.679,29.155c36.619,0,65.306-20.893,65.306-47.563C773.012,698.934,766.734,692.656,758.988,692.656z   "/></g></svg>