<svg xmlns="http://www.w3.org/2000/svg" xmlns:xlink="http://www.w3.org/1999/xlink" version="1.1" x="0px" y="0px" viewBox="0 0 100 100" enable-background="new 0 0 100 100" xml:space="preserve"><path d="M94,59.498V22.5c0-4.963-4.037-9-9-9c-4.963,0-9,4.037-9,9v36.999c-3.752,2.804-6,7.209-6,12.002c0,8.271,6.729,15,15,15  c8.271,0,15-6.729,15-15C100,66.707,97.753,62.302,94,59.498z M85,82.5c-6.075,0-11-4.925-11-11c0-4.274,2.439-7.977,6-9.797V22.5  c0-2.761,2.239-5,5-5c2.761,0,5,2.239,5,5v39.203c3.561,1.82,6,5.522,6,9.797C96,77.575,91.075,82.5,85,82.5z"/><path d="M87.841,63.814V22.931c0-1.757-1.21-3.182-2.701-3.182h-0.28c-1.492,0-2.701,1.425-2.701,3.182v40.883  c-3.127,1.157-5.36,4.156-5.36,7.686c0,4.53,3.672,8.201,8.201,8.201s8.201-3.672,8.201-8.201  C93.201,67.971,90.968,64.972,87.841,63.814z"/><path d="M24,59.498V22.5c0-4.963-4.038-9-9-9s-9,4.037-9,9v36.999C2.247,62.302,0,66.707,0,71.5c0,8.271,6.729,15,15,15  s15-6.729,15-15C30,66.707,27.753,62.302,24,59.498z M15,82.5c-6.075,0-11-4.925-11-11c0-4.274,2.439-7.977,6-9.797V22.5  c0-2.761,2.239-5,5-5s5,2.239,5,5v39.203c3.561,1.82,6,5.522,6,9.797C26,77.575,21.075,82.5,15,82.5z"/><path d="M17.841,63.814v-7.407h-5.683v7.407c-3.127,1.157-5.36,4.156-5.36,7.686c0,4.529,3.672,8.201,8.201,8.201  s8.201-3.672,8.201-8.201C23.201,67.971,20.969,64.972,17.841,63.814z"/><path d="M59,59.498V22.5c0-4.963-4.037-9-9-9s-9,4.037-9,9v36.999c-3.752,2.803-6,7.209-6,12.001c0,8.271,6.729,15,15,15  s15-6.729,15-15C65,66.707,62.752,62.302,59,59.498z M50,82.5c-6.075,0-11-4.925-11-11c0-4.274,2.439-7.977,6-9.797V22.5  c0-2.761,2.238-5,5-5s5,2.239,5,5v39.203c3.561,1.82,6,5.522,6,9.797C61,77.575,56.075,82.5,50,82.5z"/><path d="M52.841,63.814V39.907h-5.683v23.908c-3.126,1.157-5.36,4.156-5.36,7.686c0,4.53,3.672,8.201,8.201,8.201  c4.529,0,8.201-3.672,8.201-8.201C58.201,67.971,55.968,64.972,52.841,63.814z"/></svg>